# File created by Blade
# Date/Time:  Thu Jan 22 16:04:59 2015
# Frame Rate: 120.000 fps
#------------------------------------------------------
:FULLY-SPECIFIED
:DEGREES
1050
root 4.026597 36.868946 5.769607 -4.462122 -7.087596 2.288822
RightUpLeg 11.165414 -5.341659 -11.126684
RightLeg -4.216104 -0.000000 0.000000
RightFoot -8.812537 -8.395496 19.581357
RightToeBase 11.507610 -0.000000 -0.000000
LeftUpLeg 11.209486 0.712102 5.543092
LeftLeg -1.844717 -0.000000 0.000000
LeftFoot -7.706672 8.787702 -22.592012
LeftToeBase 4.057235 -0.000000 -0.000000
Spine 8.841166 -1.455190 -3.673722
RightShoulder -0.409882 -17.923553 -20.611584
RightArm 31.114428 2.505655 37.752924
RightForeArm 11.279468 -0.000000 47.345624
RightHand 7.155425 -0.000000 -7.752168
RightHandThumb1 -24.326973 -0.000000 -32.862282
LeftShoulder -29.879689 38.801791 7.104191
LeftArm 44.067295 -30.896981 -61.177330
LeftForeArm 28.003158 -0.000000 9.120128
LeftHand -23.780783 -0.000000 2.390818
LeftHandThumb1 -26.253704 0.000000 33.147579
Head -1.329540 15.487783 1.349786
1051
root 4.028694 36.868775 5.767521 -4.393267 -7.163983 2.278676
RightUpLeg 11.058676 -5.307252 -11.109833
RightLeg -4.189184 -0.000000 0.000000
RightFoot -8.806742 -8.376207 19.591885
RightToeBase 11.500667 -0.000000 -0.000000
LeftUpLeg 11.142703 0.767510 5.548269
LeftLeg -1.820728 -0.000000 0.000000
LeftFoot -7.746433 8.803033 -22.606933
LeftToeBase 4.169884 -0.000000 -0.000000
Spine 8.789841 -1.657410 -3.738120
RightShoulder -0.503835 -17.891540 -20.532958
RightArm 30.656808 2.675834 37.824211
RightForeArm 11.465905 0.000000 46.690064
RightHand 7.108071 -0.000000 -7.821042
RightHandThumb1 -24.326973 -0.000000 -32.862282
LeftShoulder -29.902054 38.744825 7.165389
LeftArm 44.054616 -30.968865 -61.244648
LeftForeArm 28.164066 -0.000000 9.149526
LeftHand -23.834951 0.000000 2.359465
LeftHandThumb1 -26.253704 0.000000 33.147579
Head -1.374774 15.671442 1.395205
1052
root 4.031652 36.869300 5.773207 -4.387813 -7.201242 2.273539
RightUpLeg 11.055844 -5.337765 -11.118916
RightLeg -4.196183 -0.000000 0.000000
RightFoot -8.772971 -8.312205 19.603895
RightToeBase 11.498051 -0.000000 -0.000000
LeftUpLeg 11.150517 0.756846 5.542156
LeftLeg -1.815343 -0.000000 0.000000
LeftFoot -7.775144 8.842363 -22.588698
LeftToeBase 4.296948 -0.000000 -0.000000
Spine 8.807481 -1.865251 -3.791770
RightShoulder -0.648061 -17.915858 -20.463134
RightArm 30.271502 2.873449 37.895282
RightForeArm 11.592826 -0.000000 46.029156
RightHand 6.961496 -0.000000 -7.662657
RightHandThumb1 -24.326973 -0.000000 -32.862282
LeftShoulder -29.918367 38.706728 7.180321
LeftArm 44.047097 -31.020392 -61.223061
LeftForeArm 28.108201 0.000000 9.131071
LeftHand -23.846184 -0.000000 2.422561
LeftHandThumb1 -26.253704 0.000000 33.147579
Head -1.452174 15.820546 1.389318
1053
root 4.034133 36.869681 5.775160 -4.354902 -7.252533 2.275072
RightUpLeg 11.012320 -5.328600 -11.122059
RightLeg -4.201161 -0.000000 0.000000
RightFoot -8.749374 -8.281925 19.604025
RightToeBase 11.499445 -0.000000 -0.000000
LeftUpLeg 11.123565 0.787424 5.532631
LeftLeg -1.803473 -0.000000 0.000000
LeftFoot -7.795419 8.868489 -22.605022
LeftToeBase 4.360752 -0.000000 -0.000000
Spine 8.792559 -2.056163 -3.848856
RightShoulder -0.746757 -17.970811 -20.439498
RightArm 29.915230 3.168321 38.074029
RightForeArm 11.812400 -0.000000 45.326981
RightHand 6.718641 -0.000000 -7.890865
RightHandThumb1 -24.326973 -0.000000 -32.862282
LeftShoulder -29.943027 38.694714 7.186962
LeftArm 44.115097 -31.168944 -61.328574
LeftForeArm 28.259885 -0.000000 9.103332
LeftHand -23.846400 -0.000000 2.483335
LeftHandThumb1 -26.253704 0.000000 33.147579
Head -1.501119 15.991114 1.394037
1054
root 4.036554 36.870194 5.776692 -4.318042 -7.297973 2.267793
RightUpLeg 10.967108 -5.324708 -11.115216
RightLeg -4.203077 -0.000000 0.000000
RightFoot -8.734794 -8.262695 19.626446
RightToeBase 11.545896 -0.000000 -0.000000
LeftUpLeg 11.086105 0.791661 5.531629
LeftLeg -1.779356 -0.000000 0.000000
LeftFoot -7.821278 8.887761 -22.631721
LeftToeBase 4.393307 -0.000000 -0.000000
Spine 8.778245 -2.262220 -3.897127
RightShoulder -0.855305 -17.965590 -20.424136
RightArm 29.567367 3.396376 38.244099
RightForeArm 11.957885 -0.000000 44.604656
RightHand 6.694057 -0.000000 -7.749700
RightHandThumb1 -24.326973 -0.000000 -32.862282
LeftShoulder -29.973545 38.666706 7.211336
LeftArm 44.140482 -31.289685 -61.416620
LeftForeArm 28.369392 -0.000000 9.076503
LeftHand -23.835317 -0.000000 2.393635
LeftHandThumb1 -26.253704 0.000000 33.147579
Head -1.561188 16.172741 1.379189
1055
root 4.038690 36.870654 5.777898 -4.265552 -7.335767 2.263684
RightUpLeg 10.908747 -5.333167 -11.111279
RightLeg -4.208722 -0.000000 0.000000
RightFoot -8.711754 -8.236245 19.632874
RightToeBase 11.519557 -0.000000 -0.000000
LeftUpLeg 11.035115 0.788288 5.527460
LeftLeg -1.764705 -0.000000 0.000000
LeftFoot -7.841095 8.924190 -22.632638
LeftToeBase 4.436455 -0.000000 -0.000000
Spine 8.744226 -2.461595 -3.945400
RightShoulder -0.971174 -17.966529 -20.362817
RightArm 29.176741 3.560983 38.278293
RightForeArm 12.303758 -0.000000 43.958817
RightHand 6.610194 -0.000000 -7.682508
RightHandThumb1 -24.326973 -0.000000 -32.862282
LeftShoulder -29.991354 38.599110 7.260936
LeftArm 44.145678 -31.445211 -61.548193
LeftForeArm 28.486589 -0.000000 9.087277
LeftHand -23.771184 -0.000000 2.345233
LeftHandThumb1 -26.253704 0.000000 33.147579
Head -1.620902 16.328650 1.370160
1056
root 4.041110 36.871074 5.779676 -4.217753 -7.367507 2.264370
RightUpLeg 10.851761 -5.355003 -11.113367
RightLeg -4.201741 -0.000000 0.000000
RightFoot -8.699638 -8.206473 19.623463
RightToeBase 11.561532 -0.000000 -0.000000
LeftUpLeg 10.989568 0.768598 5.514783
LeftLeg -1.750711 -0.000000 0.000000
LeftFoot -7.872417 8.960873 -22.629972
LeftToeBase 4.521623 -0.000000 -0.000000
Spine 8.710071 -2.639005 -3.996739
RightShoulder -1.086770 -18.046774 -20.326530
RightArm 28.842668 3.840325 38.414188
RightForeArm 12.594876 -0.000000 43.276989
RightHand 6.695994 -0.000000 -7.636851
RightHandThumb1 -24.326973 -0.000000 -32.862282
LeftShoulder -30.029436 38.571116 7.278288
LeftArm 44.235580 -31.609213 -61.677766
LeftForeArm 28.473190 -0.000000 9.031715
LeftHand -23.737318 0.000000 2.448356
LeftHandThumb1 -26.253704 0.000000 33.147579
Head -1.664248 16.473870 1.378695
